<?xml version="1.0" standalone="no"?>
<!DOCTYPE svg PUBLIC "-//W3C//DTD SVG 20010904//EN"
 "http://www.w3.org/TR/2001/REC-SVG-20010904/DTD/svg10.dtd">
<svg version="1.0" xmlns="http://www.w3.org/2000/svg"
 width="900.000000pt" height="900.000000pt" viewBox="0 0 900.000000 900.000000"
 preserveAspectRatio="xMidYMid meet">
<metadata>
Created by potrace 1.11, written by Peter Selinger 2001-2013
</metadata>
<g transform="translate(0.000000,900.000000) scale(0.100000,-0.100000)"
fill="#000000" stroke="none">
<path d="M3752 8388 c-7 -7 -12 -19 -12 -29 0 -9 -12 -38 -26 -65 -17 -33 -32
-86 -44 -164 -10 -63 -25 -134 -34 -157 -9 -23 -18 -94 -22 -165 -5 -81 -13
-136 -24 -161 -13 -29 -18 -71 -19 -181 -1 -80 2 -147 7 -150 5 -3 7 -17 4
-31 -3 -20 -1 -24 12 -19 9 3 17 18 18 33 4 59 7 88 12 121 3 19 0 49 -6 67
-13 35 -4 57 13 33 7 -11 9 11 6 73 -3 48 -1 90 4 93 5 3 9 -11 9 -30 0 -19 5
-38 10 -41 7 -4 10 -78 10 -203 -2 -208 4 -274 26 -307 12 -16 14 -17 14 -3 0
10 12 19 30 23 17 4 43 17 58 29 28 24 153 101 210 130 35 18 112 19 113 1 1
-5 -23 -19 -53 -31 -29 -12 -80 -39 -113 -61 -86 -57 -195 -114 -206 -108 -5
3 -6 -1 -3 -9 4 -11 0 -16 -14 -16 -11 0 -22 6 -25 13 -5 13 -37 -53 -37 -76
0 -18 -17 -32 -48 -42 -17 -5 -23 -3 -21 7 5 36 -2 108 -11 108 -18 0 -33 -40
-20 -55 8 -10 7 -27 -5 -68 -15 -50 -23 -61 -121 -143 -58 -49 -111 -87 -117
-85 -7 2 -19 4 -27 5 -33 4 -90 36 -90 50 0 9 -7 16 -16 16 -9 0 -34 16 -55
35 -22 19 -45 35 -52 35 -8 0 -22 9 -31 19 -10 11 -32 23 -50 27 -54 12 -126
53 -136 79 -7 19 -19 26 -50 31 -25 4 -45 14 -51 25 -6 12 -21 19 -39 19 -20
0 -31 6 -35 20 -8 25 -38 42 -59 34 -29 -11 -11 -38 29 -46 11 -2 20 -8 20
-14 0 -5 12 -25 27 -43 21 -24 33 -31 48 -26 15 5 20 2 20 -12 0 -22 -63 -150
-120 -243 -22 -36 -56 -96 -76 -135 -66 -126 -92 -150 -115 -102 -13 27 -108
104 -171 137 -25 14 -58 35 -72 48 -15 12 -31 22 -36 22 -6 0 -10 5 -10 11 0
31 44 177 68 227 28 56 79 142 91 152 10 8 97 114 105 128 5 8 -2 22 -19 38
-14 13 -28 24 -30 24 -7 0 -75 -108 -113 -180 -19 -36 -43 -76 -52 -90 -9 -14
-33 -56 -54 -95 -42 -82 -91 -141 -124 -150 -22 -6 -23 -4 -20 27 2 28 0 33
-20 36 -12 2 -29 16 -37 33 -9 16 -19 29 -23 29 -4 0 -13 14 -19 31 -7 17 -16
28 -21 25 -20 -12 -79 75 -97 145 -22 81 -5 138 81 285 35 58 57 86 77 93 27
10 35 25 18 35 -15 10 -35 -3 -52 -32 -124 -207 -164 -267 -195 -291 -39 -31
-58 -28 -50 9 4 22 2 30 -9 30 -46 0 -165 191 -165 265 0 40 61 150 108 193
42 40 44 44 29 59 -13 14 -21 14 -42 5 -14 -6 -25 -17 -25 -23 0 -19 -112
-211 -127 -216 -25 -10 -60 14 -66 45 -3 16 -25 52 -48 78 -55 63 -99 133 -99
156 0 24 26 75 56 111 20 23 21 32 12 57 -5 17 -13 30 -18 30 -4 0 -25 -35
-46 -77 -35 -70 -42 -78 -70 -81 -27 -3 -36 3 -67 45 -81 108 -107 140 -146
178 -47 44 -55 82 -19 87 22 3 22 4 -9 36 -36 37 -71 41 -98 12 -10 -11 -26
-20 -37 -20 -11 0 -18 -7 -18 -20 0 -11 6 -20 14 -20 7 0 25 -15 39 -32 14
-18 49 -58 77 -88 29 -30 64 -71 78 -90 28 -38 122 -150 158 -190 162 -176
180 -198 193 -233 7 -17 20 -27 41 -32 24 -5 32 -13 37 -37 4 -20 18 -37 44
-54 21 -13 45 -39 53 -57 16 -35 127 -157 144 -157 6 0 13 -9 17 -20 3 -11 17
-28 31 -39 13 -10 24 -23 24 -28 0 -5 14 -22 31 -39 17 -16 36 -42 43 -59 7
-16 68 -86 135 -154 66 -69 121 -130 121 -136 0 -14 39 -50 63 -58 9 -4 17
-15 17 -26 0 -11 5 -23 10 -26 6 -4 21 -23 34 -43 13 -21 54 -68 91 -107 37
-38 73 -84 81 -102 7 -17 23 -35 35 -38 11 -4 27 -22 35 -41 8 -18 28 -40 44
-49 16 -8 39 -32 50 -53 24 -45 83 -112 98 -112 7 0 15 -12 18 -27 4 -15 21
-41 38 -58 17 -16 36 -39 41 -49 13 -23 51 -14 58 14 3 12 14 20 26 20 25 0
18 -26 -9 -35 -34 -11 -38 -65 -5 -65 17 0 35 -31 35 -60 0 -12 -22 -45 -49
-73 -52 -55 -76 -100 -66 -125 3 -10 17 4 42 42 27 41 43 56 60 56 13 0 23 4
23 10 0 5 10 9 23 9 12 -1 34 3 48 9 15 6 29 9 32 6 2 -2 37 7 78 22 149 53
171 74 140 130 -18 34 -102 114 -120 114 -6 0 -10 3 -10 8 4 21 -3 32 -20 32
-11 0 -23 -4 -26 -10 -3 -5 -10 -10 -15 -10 -26 0 91 260 164 363 23 32 51 72
64 90 25 36 201 207 213 207 9 0 16 -80 23 -241 3 -70 15 -163 30 -230 14 -63
30 -147 36 -187 12 -82 30 -126 59 -141 10 -6 43 -31 72 -57 61 -51 245 -164
269 -164 9 0 20 -4 25 -9 6 -5 30 -11 54 -15 43 -7 43 -6 39 21 -3 15 -18 73
-33 128 -25 87 -28 117 -28 235 0 103 4 148 18 190 30 94 88 177 115 168 6 -2
43 -46 83 -98 40 -52 92 -109 117 -127 25 -18 57 -42 72 -53 14 -11 37 -21 50
-22 19 -3 23 1 20 22 -2 14 -14 51 -28 83 -38 86 -20 101 49 39 63 -58 171
-130 227 -152 37 -14 76 -20 150 -21 55 0 103 -5 106 -10 7 -11 55 -11 73 0
24 15 -12 160 -47 189 -9 7 -11 12 -4 12 16 0 -4 52 -72 189 -100 199 -161
452 -171 709 -5 139 -15 225 -27 237 -8 9 -132 -11 -135 -21 -2 -6 15 -11 39
-13 56 -3 61 -8 55 -49 -8 -45 -53 -86 -186 -165 -113 -67 -246 -184 -330
-291 -49 -63 -76 -111 -159 -281 -27 -55 -55 -111 -63 -125 -21 -38 -97 -112
-108 -106 -5 4 -12 20 -16 36 -4 17 -10 30 -13 30 -4 0 -9 56 -10 125 -3 108
0 138 23 230 31 124 86 240 137 286 10 9 18 20 19 25 0 14 137 116 202 151 33
18 67 39 77 48 9 8 21 15 26 15 5 0 20 6 34 13 14 7 44 19 68 26 34 12 41 18
36 33 -4 14 0 18 17 18 18 0 19 -2 9 -15 -10 -12 -9 -15 8 -15 11 0 33 3 50 6
27 6 30 9 21 26 -10 18 -18 19 -102 14 -51 -3 -107 -7 -124 -8 -18 -1 -33 -5
-33 -10 0 -4 -9 -8 -21 -8 -19 0 -20 4 -14 49 6 42 0 72 -35 188 -23 76 -71
210 -107 298 -35 88 -69 178 -74 200 -6 21 -14 44 -19 51 -6 6 -23 44 -40 84
-16 40 -47 92 -68 115 -20 23 -45 56 -54 73 -18 35 -27 39 -46 20z m28 -232
c0 -43 -3 -77 -6 -74 -12 12 -33 142 -27 166 6 24 7 24 19 7 9 -12 14 -47 14
-99z m-60 -273 c0 -35 -3 -44 -10 -33 -13 20 -13 80 0 80 6 0 10 -21 10 -47z
m-3 -85 c-3 -7 -5 -2 -5 12 0 14 2 19 5 13 2 -7 2 -19 0 -25z m955 -978 c9
-41 24 -107 33 -146 8 -39 28 -100 43 -135 40 -94 119 -244 137 -259 8 -7 15
-28 15 -46 0 -19 5 -34 10 -34 16 0 11 -28 -7 -38 -18 -10 -103 13 -103 28 0
5 -17 19 -37 31 -53 30 -173 166 -214 241 -33 61 -34 66 -34 178 1 102 4 121
26 170 32 70 54 92 88 88 23 -3 27 -10 43 -78z m-1802 61 c0 -19 83 -111 100
-111 10 0 20 -6 23 -14 9 -22 94 -87 116 -89 12 -1 21 -4 21 -8 0 -8 47 -29
65 -29 8 0 15 7 15 15 0 8 3 15 8 16 4 0 17 2 30 3 29 3 28 -10 -2 -18 -18 -4
-25 -15 -31 -43 -8 -42 -53 -122 -147 -259 -35 -51 -83 -121 -108 -158 -25
-36 -48 -66 -52 -66 -4 0 -10 9 -13 21 -10 31 -153 172 -207 203 -27 15 -48
32 -48 37 0 5 -10 8 -22 6 -30 -3 -33 21 -12 91 18 60 97 230 138 296 23 37
103 115 119 116 4 0 7 -4 7 -9z m1434 -265 c-3 -13 -7 -68 -9 -122 -4 -135 -4
-134 -14 -134 -12 0 -22 27 -27 70 -2 19 -6 59 -10 88 -4 43 -2 58 16 87 25
41 54 48 44 11z"/>
<path d="M4994 8320 c-4 -16 -12 -34 -19 -40 -8 -7 -11 -26 -8 -55 8 -67 -5
-135 -25 -135 -15 0 -17 14 -20 98 -2 53 1 109 7 124 8 22 7 26 -4 22 -23 -9
-75 -161 -75 -220 0 -14 -8 -41 -19 -62 -18 -37 -31 -119 -36 -242 -2 -36 -10
-81 -19 -101 -16 -38 -25 -206 -12 -227 15 -24 26 1 26 58 0 32 5 62 10 65 6
4 10 16 9 28 -6 65 2 117 16 117 11 0 15 -11 15 -36 0 -33 2 -35 16 -23 15 12
16 11 10 -7 -3 -11 -7 -63 -8 -115 -2 -99 8 -152 23 -128 11 18 22 5 25 -29 2
-15 7 -40 13 -57 16 -48 36 -129 33 -138 -1 -5 2 -6 8 -2 9 5 15 -27 11 -60 0
-6 11 -60 25 -120 15 -61 29 -129 31 -152 3 -29 10 -43 20 -43 8 0 12 -4 8 -9
-7 -13 25 -144 38 -152 5 -4 7 -21 4 -38 -5 -23 -3 -31 8 -31 9 0 12 -6 9 -15
-4 -8 -1 -22 6 -30 7 -8 10 -22 6 -30 -3 -8 -1 -15 4 -15 6 0 10 -9 10 -19 0
-11 4 -22 9 -25 4 -3 7 -17 6 -30 -2 -15 3 -27 12 -31 9 -3 13 -8 10 -12 -4
-3 4 -18 16 -34 12 -15 38 -50 57 -78 19 -28 43 -53 52 -56 9 -3 35 -24 57
-47 39 -39 42 -40 65 -25 37 25 64 97 86 229 71 424 -3 937 -198 1378 -30 69
-65 153 -78 187 -13 34 -39 92 -58 130 -18 37 -37 78 -41 90 -3 12 -19 32 -35
43 -16 11 -34 37 -41 58 -12 38 -36 72 -51 72 -5 0 -11 -13 -14 -30z m36 -87
c0 -23 -23 -9 -27 16 -3 20 -1 22 12 11 8 -7 15 -19 15 -27z m59 -85 c10 -25
-1 -44 -18 -34 -14 9 -14 56 -1 56 6 0 15 -10 19 -22z m-197 -96 c-2 -16 2
-33 7 -37 14 -8 14 -224 1 -245 -17 -27 -23 -1 -27 122 -2 68 -5 130 -5 138
-3 39 3 61 15 57 7 -2 11 -17 9 -35z m9 -559 c-8 -15 -10 -15 -11 -2 0 17 10
32 18 25 2 -3 -1 -13 -7 -23z"/>
<path d="M1910 7550 c0 -5 7 -10 16 -10 8 0 12 5 9 10 -3 6 -10 10 -16 10 -5
0 -9 -4 -9 -10z"/>
<path d="M5670 7438 c0 -42 15 -53 67 -50 26 1 102 5 168 8 130 6 184 24 72
24 -54 0 -65 3 -61 15 5 12 -9 14 -88 13 -51 0 -108 2 -125 6 -30 7 -33 5 -33
-16z"/>
<path d="M5640 7410 c0 -5 5 -10 11 -10 5 0 7 5 4 10 -3 6 -8 10 -11 10 -2 0
-4 -4 -4 -10z"/>
<path d="M6057 7409 c8 -8 16 -8 30 0 16 9 14 10 -11 11 -22 0 -27 -3 -19 -11z"/>
<path d="M6230 7370 c-20 -12 -13 -17 47 -28 59 -10 92 0 72 24 -13 16 -95 19
-119 4z"/>
<path d="M6456 7346 c4 -17 0 -27 -13 -34 -16 -10 -15 -12 10 -21 50 -19 82
-7 54 21 -8 7 -19 23 -26 36 -16 29 -33 28 -25 -2z"/>
<path d="M5667 7330 c3 -19 14 -48 24 -65 9 -16 27 -55 39 -85 50 -128 91
-196 124 -205 40 -12 86 -36 86 -45 0 -6 9 -10 20 -10 29 0 247 -219 304 -305
88 -133 140 -188 251 -270 11 -9 34 -26 51 -40 18 -14 39 -25 48 -25 9 0 16
-4 16 -9 0 -8 73 -43 93 -45 4 -1 11 -7 15 -13 5 -7 30 -16 58 -19 27 -4 55
-12 63 -17 19 -16 187 -21 251 -8 30 6 64 13 75 14 33 6 129 39 139 48 16 15
56 10 63 -7 7 -20 -37 -63 -93 -92 -54 -28 -185 -69 -259 -81 -112 -19 -318
-32 -370 -22 -169 30 -275 54 -310 70 -22 10 -51 22 -65 26 -69 22 -241 252
-334 447 -25 54 -46 103 -46 108 0 20 -63 145 -67 133 -2 -6 1 -42 6 -80 38
-253 44 -327 32 -411 -6 -46 -15 -135 -18 -197 -5 -99 -2 -132 22 -257 29
-152 74 -297 104 -338 10 -14 28 -44 39 -66 31 -61 109 -161 191 -247 41 -42
77 -81 81 -85 26 -38 238 -209 348 -282 169 -113 200 -145 231 -240 22 -66 23
-83 19 -228 -5 -141 -4 -154 9 -124 10 24 18 32 29 28 20 -8 47 17 242 217 22
22 35 27 69 25 23 -1 41 -4 41 -7 -1 -3 4 -19 11 -36 17 -40 7 -118 -19 -154
-11 -16 -20 -33 -20 -39 0 -12 -46 -98 -73 -137 -22 -32 -87 -92 -140 -131
-28 -20 -80 -47 -214 -111 -18 -8 -33 -22 -33 -30 0 -16 45 -64 64 -68 6 -1
24 -5 40 -10 16 -4 57 -3 95 4 114 20 174 18 199 -7 16 -16 40 -68 91 -197 51
-130 172 -327 313 -510 52 -68 169 -193 205 -220 52 -40 59 -51 78 -121 20
-73 17 -256 -9 -429 -8 -60 -13 -119 -9 -130 3 -11 6 -33 4 -49 -1 -22 2 -27
15 -22 8 3 20 6 26 6 6 0 48 38 94 85 87 89 109 99 156 73 36 -21 58 -42 58
-55 0 -6 6 -18 14 -26 35 -35 19 -134 -32 -202 -104 -138 -332 -268 -611 -350
-87 -25 -105 -27 -272 -26 -151 1 -179 -1 -179 -14 0 -9 16 -18 43 -25 23 -5
62 -17 87 -24 134 -43 371 -47 492 -9 211 68 293 99 335 127 21 14 43 26 49
26 6 0 27 10 46 23 18 13 48 29 65 35 32 11 43 19 107 78 20 19 43 34 51 34
17 0 45 -27 45 -44 0 -8 6 -19 14 -25 8 -7 17 -24 21 -39 7 -29 74 -132 85
-132 4 0 27 -30 51 -68 47 -74 128 -156 202 -204 26 -17 47 -35 47 -40 0 -12
38 -10 46 4 4 7 -12 27 -42 52 -26 23 -64 59 -84 80 -19 22 -52 57 -72 79 -25
27 -40 56 -47 89 -15 66 -15 68 14 124 14 27 25 54 25 61 0 18 20 27 33 14 36
-36 44 13 41 266 -2 141 1 235 6 238 6 4 10 13 10 21 0 8 9 34 21 57 11 23 22
62 24 87 2 25 11 70 20 100 28 97 33 131 46 323 14 226 7 618 -15 722 -18 88
-81 276 -112 335 -34 64 -31 139 4 98 6 -7 11 -17 12 -23 1 -5 6 -20 11 -33 5
-13 9 -31 9 -40 0 -13 3 -12 16 6 18 26 24 190 12 347 -10 142 -12 150 -34
150 -10 1 -18 7 -16 14 1 7 -3 19 -9 27 -8 10 -9 31 -4 67 7 51 7 62 2 141 -2
36 -26 65 -28 34 -1 -29 -18 30 -18 67 -1 29 -11 56 -37 95 -25 38 -34 60 -29
77 4 18 0 25 -17 32 -29 11 -50 35 -77 89 -12 23 -25 42 -29 42 -10 0 -34 70
-33 97 1 16 -11 31 -39 48 -21 14 -45 35 -51 47 -10 19 -60 85 -109 145 -6 7
-10 16 -10 20 0 4 -10 24 -22 43 -12 19 -22 39 -23 43 0 4 -5 11 -11 15 -6 4
-14 18 -17 32 -4 14 -17 36 -29 50 -121 132 -191 216 -198 236 -5 13 -14 24
-19 24 -6 0 -26 24 -45 53 -20 28 -76 96 -126 151 -49 54 -90 104 -90 111 0 7
-22 37 -49 67 -26 29 -55 67 -64 83 -8 17 -33 47 -56 67 -25 22 -41 45 -41 59
0 26 -47 92 -61 84 -5 -4 -9 0 -9 8 0 8 -22 38 -50 67 -27 29 -50 55 -50 59 0
21 -229 235 -278 260 -15 7 -34 23 -44 34 -13 17 -19 19 -31 9 -11 -10 -19 -8
-37 8 -13 11 -29 20 -35 20 -7 0 -15 9 -18 20 -5 21 -9 23 -76 40 -28 8 -45
18 -48 31 -4 13 -14 19 -34 19 -48 0 -78 18 -96 57 -17 36 -21 38 -62 36 -24
-1 -46 -4 -49 -7 -16 -16 27 -54 96 -86 42 -19 90 -44 105 -57 16 -13 37 -23
47 -23 10 0 27 -11 37 -24 10 -13 28 -26 40 -30 29 -9 125 -82 177 -135 62
-63 122 -156 128 -201 2 -14 9 -34 15 -44 7 -13 8 -28 2 -43 -5 -13 -5 -23 -1
-23 4 0 0 -5 -8 -10 -8 -5 -64 -8 -125 -6 -95 3 -124 8 -210 38 -113 39 -281
134 -425 241 -52 39 -127 95 -167 124 -39 29 -75 53 -79 53 -4 0 -22 12 -41
26 -18 14 -82 50 -141 81 -59 30 -126 66 -150 79 -23 13 -53 24 -67 24 -24 0
-55 23 -55 41 0 6 -4 8 -9 5 -5 -3 -7 -16 -4 -29 l5 -22 -19 21 c-10 12 -23
30 -30 40 -10 16 -11 14 -6 -16z m951 -50 c10 -16 10 -20 -1 -20 -6 0 -18 9
-25 20 -10 16 -10 20 1 20 6 0 18 -9 25 -20z m-23 -1793 c35 -5 131 -36 161
-52 16 -8 37 -15 48 -15 10 0 35 -4 55 -9 92 -23 343 -75 416 -86 73 -11 281
-4 330 11 28 9 70 18 95 20 57 7 145 31 190 54 73 36 82 -9 15 -68 -26 -22
-74 -54 -108 -70 -73 -36 -254 -105 -315 -122 -69 -18 -228 -40 -338 -47 -312
-18 -646 107 -743 280 -21 38 -24 77 -5 77 6 0 17 7 24 15 8 9 21 13 36 9 15
-4 24 -2 24 6 0 11 25 11 115 -3z m1535 -97 c0 -5 -4 -10 -10 -10 -5 0 -10 5
-10 10 0 6 5 10 10 10 6 0 10 -4 10 -10z m114 -93 c15 -6 16 -10 6 -22 -15
-18 -5 -35 21 -35 12 0 19 -7 19 -19 0 -10 7 -24 15 -31 17 -14 21 -45 5 -35
-6 4 -8 10 -5 15 3 4 -2 10 -10 13 -9 4 -12 1 -8 -9 3 -8 -1 -14 -11 -14 -9 0
-16 -5 -16 -11 0 -6 -6 -9 -12 -6 -7 2 -12 9 -11 15 2 6 -6 13 -16 17 -20 6
-46 52 -42 74 2 9 -3 12 -14 7 -15 -5 -17 0 -13 34 2 26 -1 41 -9 44 -7 3 -13
1 -13 -4 0 -6 -4 -10 -10 -10 -5 0 -10 9 -10 21 0 14 5 19 14 16 8 -3 17 2 21
11 5 14 13 10 43 -24 20 -22 45 -43 56 -47z m-295 -333 c31 -26 43 -75 22 -89
-16 -9 -78 26 -90 52 -14 30 -14 29 5 47 21 21 27 20 63 -10z m258 -321 c29
-32 53 -61 53 -64 0 -4 19 -35 43 -69 81 -119 178 -303 193 -368 4 -15 10 -31
14 -37 15 -19 37 -256 32 -329 -3 -39 -7 -46 -26 -47 -19 -1 -19 -2 4 -9 14
-4 22 -9 18 -10 -13 -4 -28 -7 -37 -9 -5 0 -11 -15 -15 -33 -5 -24 -9 -29 -18
-20 -16 16 -58 15 -59 0 0 -10 -2 -10 -6 0 -2 6 -21 12 -40 12 -31 0 -35 3
-30 21 4 15 2 18 -7 10 -14 -12 -43 5 -91 54 -16 16 -32 30 -35 30 -18 0 -45
43 -42 68 3 23 0 27 -22 27 -24 0 -34 15 -40 58 -2 8 -12 24 -23 36 -12 12
-24 38 -28 58 -4 20 -16 44 -26 54 -10 9 -19 27 -19 38 0 12 -6 30 -14 41 -7
11 -21 47 -31 80 -10 33 -24 78 -33 100 -21 57 -41 145 -42 181 0 62 36 107
130 158 95 51 128 46 197 -31z m-413 -1309 c9 -8 16 -22 16 -30 0 -17 16 -18
26 -2 6 9 10 5 14 -12 3 -14 16 -29 28 -35 12 -5 22 -14 22 -18 0 -13 87 -97
100 -97 6 0 17 -6 24 -12 7 -7 27 -24 45 -38 18 -14 38 -30 44 -36 7 -5 20
-13 30 -17 10 -4 48 -28 84 -54 35 -27 80 -57 99 -68 150 -89 218 -130 228
-140 6 -6 45 -30 86 -52 53 -28 76 -46 78 -61 3 -19 -1 -22 -30 -22 -41 0
-211 33 -314 60 -71 19 -140 51 -225 103 -56 35 -279 248 -285 274 -4 13 -10
23 -15 23 -5 0 -9 9 -9 20 0 11 -4 20 -10 20 -5 0 -10 11 -10 25 0 14 -7 28
-15 31 -8 4 -12 10 -9 15 3 5 -1 12 -9 15 -9 3 -13 13 -10 25 3 10 1 19 -5 19
-6 0 -8 8 -5 19 3 10 0 22 -6 25 -16 10 -13 36 3 36 8 0 22 -7 30 -16z m976
-1069 c0 -31 -3 -35 -27 -35 -24 0 -25 1 -11 18 8 9 18 25 21 35 10 27 17 20
17 -18z m-3 -87 c-3 -7 -5 -2 -5 12 0 14 2 19 5 13 2 -7 2 -19 0 -25z"/>
<path d="M8200 5210 c0 -5 5 -10 10 -10 6 0 10 5 10 10 0 6 -4 10 -10 10 -5 0
-10 -4 -10 -10z"/>
<path d="M5770 7351 c0 -6 5 -13 10 -16 6 -3 10 1 10 9 0 9 -4 16 -10 16 -5 0
-10 -4 -10 -9z"/>
<path d="M6401 7314 c0 -11 3 -14 6 -6 3 7 2 16 -1 19 -3 4 -6 -2 -5 -13z"/>
<path d="M3570 7135 c-10 -12 -10 -18 0 -30 19 -23 30 -18 30 15 0 33 -11 38
-30 15z"/>
<path d="M2641 5476 c-8 -9 -8 -16 -2 -20 6 -4 15 3 21 14 12 23 -2 27 -19 6z"/>
<path d="M4385 5450 c-81 -19 -121 -35 -172 -68 -29 -19 -53 -38 -53 -42 0 -4
-10 -18 -23 -32 -39 -42 -86 -123 -107 -183 -40 -117 -18 -233 70 -362 57 -84
120 -133 211 -163 60 -19 84 -22 162 -17 141 8 187 26 263 104 107 108 152
227 140 370 -14 177 -135 333 -290 377 -71 20 -154 27 -201 16z m206 -149 c37
-37 41 -104 9 -139 -77 -83 -185 -55 -197 50 -4 34 0 49 17 71 44 56 124 64
171 18z"/>
<path d="M8831 4544 c0 -11 3 -14 6 -6 3 7 2 16 -1 19 -3 4 -6 -2 -5 -13z"/>
<path d="M1520 3565 c-8 -9 -8 -15 -2 -15 12 0 26 19 19 26 -2 2 -10 -2 -17
-11z"/>
<path d="M1406 3395 c-3 -9 0 -15 9 -15 8 0 15 7 15 15 0 8 -4 15 -9 15 -5 0
-11 -7 -15 -15z"/>
<path d="M1352 3296 c-14 -30 -9 -47 9 -29 6 6 9 21 7 34 -3 23 -3 23 -16 -5z"/>
<path d="M1431 3253 c0 -25 1 -26 9 -8 12 27 12 35 0 35 -5 0 -10 -12 -9 -27z"/>
<path d="M1300 3198 c0 -6 -7 -20 -16 -30 -16 -16 -15 -18 1 -24 10 -4 21 -1
26 7 12 19 11 59 -1 59 -5 0 -10 -5 -10 -12z"/>
<path d="M1375 3159 c-4 -18 -3 -35 4 -42 8 -8 11 -6 11 9 0 10 3 29 6 42 4
12 2 22 -4 22 -6 0 -13 -14 -17 -31z"/>
<path d="M1300 3111 c0 -11 3 -21 8 -21 6 0 7 -56 2 -145 l-2 -30 -10 30 c-12
31 -47 75 -49 59 0 -5 -1 -63 -1 -129 0 -98 -1 -111 -8 -71 -5 27 -15 53 -22
57 -9 6 -12 28 -11 69 1 58 -8 79 -21 43 -3 -10 -10 -25 -15 -33 -20 -29 -63
-146 -80 -215 -10 -38 -26 -88 -36 -110 -14 -33 -18 -78 -22 -255 -4 -226 3
-296 39 -355 10 -16 18 -41 18 -55 0 -14 11 -35 25 -48 13 -13 27 -39 31 -58
3 -19 10 -37 15 -40 5 -3 20 -27 33 -53 50 -98 168 -202 291 -256 29 -13 56
-29 60 -34 3 -6 25 -16 48 -22 23 -7 49 -18 57 -25 8 -7 35 -20 60 -30 25 -9
53 -24 62 -32 9 -7 20 -12 25 -9 5 3 26 -3 48 -13 22 -11 54 -19 70 -20 43 0
107 -19 127 -38 24 -21 243 -29 330 -13 55 11 163 53 208 81 50 31 139 78 160
85 14 4 39 19 57 34 49 40 85 64 123 83 19 9 53 33 74 53 22 21 53 42 70 48
17 6 56 32 86 58 30 26 68 51 83 54 16 4 50 26 77 49 27 22 111 72 187 110 76
38 158 80 183 94 25 14 57 27 71 29 28 3 51 12 109 43 31 16 61 18 295 19 313
1 461 9 496 27 35 17 89 22 326 29 l203 6 25 -25 c14 -14 25 -34 25 -46 0 -25
41 -90 57 -90 22 0 51 -41 57 -83 10 -60 37 -137 48 -137 7 0 6 -5 -1 -13 -6
-8 -7 -17 -3 -21 4 -4 7 -31 7 -59 0 -29 4 -69 9 -89 6 -26 5 -38 -3 -38 -6 0
-11 9 -11 20 0 27 -50 150 -61 150 -13 0 -12 -7 16 -85 13 -38 25 -90 25 -115
0 -25 9 -65 20 -89 11 -24 20 -55 20 -68 0 -35 21 -105 37 -124 7 -8 15 -31
18 -50 10 -55 28 -112 47 -144 10 -16 18 -39 18 -51 0 -29 94 -130 144 -154
23 -11 52 -27 66 -35 14 -8 35 -15 47 -15 12 0 25 -4 28 -10 3 -5 19 -10 35
-10 15 0 30 -6 32 -12 3 -9 38 -14 115 -16 102 -3 114 -2 161 22 35 18 67 26
102 26 70 0 159 41 160 73 0 15 -38 6 -55 -13 -24 -26 -65 -26 -72 0 -3 11
-12 20 -20 20 -8 0 -13 6 -10 13 2 6 15 11 28 9 13 -1 34 0 46 3 20 5 21 8 11
30 -6 14 -20 28 -32 31 -12 4 -24 11 -28 17 -3 6 -17 11 -30 13 -12 1 -26 3
-30 3 -4 1 -6 9 -6 19 2 31 -24 97 -46 114 -16 14 -18 20 -8 26 9 6 5 12 -14
21 -20 9 -23 15 -15 24 12 15 -3 37 -25 37 -6 0 -14 18 -18 41 -4 22 -18 52
-31 67 -14 15 -25 32 -25 39 0 7 -5 13 -12 13 -9 0 -9 3 0 12 8 8 6 17 -8 36
-11 14 -20 31 -20 38 0 8 -4 14 -10 14 -5 0 -10 7 -10 16 0 9 -9 27 -20 41
-11 14 -20 34 -20 44 0 11 -4 19 -9 19 -5 0 -12 20 -15 45 -5 27 -15 50 -27
58 -10 8 -16 16 -13 20 3 3 -1 16 -9 29 -8 12 -14 33 -12 46 1 12 -2 22 -6 22
-12 0 -37 93 -37 140 0 25 6 56 13 70 7 14 23 53 36 88 13 34 27 62 32 62 4 0
6 4 3 9 -3 5 4 24 17 42 12 19 31 52 42 74 11 22 25 47 31 55 19 24 118 211
132 250 31 83 44 156 39 230 -6 90 -14 112 -36 106 -9 -3 -22 -2 -29 3 -14 8
-24 1 -134 -99 -33 -30 -72 -62 -87 -71 -14 -9 -33 -25 -43 -35 -33 -38 -146
-134 -157 -134 -4 0 -22 -14 -39 -31 -18 -17 -32 -28 -32 -24 0 4 -14 -5 -30
-19 -17 -14 -52 -35 -78 -46 -25 -11 -53 -27 -62 -34 -8 -7 -35 -19 -60 -26
-25 -8 -47 -17 -50 -20 -9 -10 -154 -69 -210 -85 -30 -9 -62 -20 -71 -25 -15
-8 -156 -39 -201 -44 -32 -4 -32 -16 0 -17 18 -1 37 -2 44 -3 15 -1 22 -23 9
-31 -6 -3 -11 -1 -11 4 0 14 -37 14 -45 1 -4 -6 -13 -5 -25 2 -14 9 -22 9 -33
-1 -10 -8 -17 -9 -22 -2 -3 6 -16 11 -28 11 -12 0 -51 2 -87 4 -36 3 -138 7
-228 10 -90 3 -191 10 -225 15 -85 12 -272 7 -327 -8 -25 -7 -63 -13 -85 -12
-39 1 -95 -17 -95 -31 0 -4 -7 -5 -15 -2 -8 4 -22 1 -29 -5 -8 -7 -20 -11 -28
-10 -17 4 -88 -30 -88 -42 0 -5 -10 -9 -23 -9 -13 0 -28 -5 -35 -12 -6 -6 -33
-19 -59 -28 -26 -10 -47 -22 -46 -28 1 -5 -13 -13 -32 -16 -19 -4 -35 -11 -35
-15 0 -5 -11 -8 -24 -8 -13 0 -39 -8 -56 -17 -18 -9 -38 -16 -45 -16 -7 0 -22
-9 -35 -20 -13 -11 -34 -23 -47 -26 -13 -4 -23 -10 -23 -15 0 -5 -4 -9 -9 -9
-8 0 -51 -27 -115 -74 -21 -15 -59 1 -101 44 -22 22 -68 62 -101 90 -59 48
-84 60 -84 42 0 -15 -64 -5 -140 22 -41 14 -85 26 -97 26 -12 0 -26 6 -30 13
-4 6 -20 18 -35 26 -16 8 -28 20 -28 27 0 7 -14 18 -30 26 -17 7 -33 20 -35
29 -3 9 -21 27 -40 40 -22 16 -30 26 -22 31 8 5 0 11 -20 19 -18 6 -33 14 -33
19 0 6 -27 40 -58 73 -26 27 -62 54 -66 49 -4 -3 -12 3 -20 13 -7 10 -24 19
-37 21 -35 4 -35 4 -20 13 12 8 12 12 -2 26 -17 17 -21 13 -18 -17 3 -23 -11
-23 -26 1 -14 22 -54 32 -77 19 -9 -5 -16 -20 -16 -33 0 -33 -18 -41 -29 -13
-9 21 -10 21 -11 3 -1 -13 -5 -7 -12 15 -12 42 -47 83 -65 76 -15 -6 -18 10
-4 18 5 3 7 15 4 26 -3 11 -9 17 -15 14 -5 -3 -14 -2 -21 3 -7 5 -23 10 -35
11 -13 0 -41 10 -61 20 -21 11 -71 23 -113 27 -56 5 -77 12 -86 25 -9 15 -8
19 5 24 14 6 14 9 -5 21 -26 19 -25 52 2 84 12 13 15 21 9 17 -8 -4 -13 -1
-13 8 0 9 5 15 11 14 7 -2 15 10 20 25 4 16 13 34 19 42 8 10 8 19 1 33 -6 12
-7 22 0 29 6 6 3 21 -8 44 l-18 34 -3 -27 c-4 -37 -29 -44 -29 -8 0 15 -9 40
-21 55 -21 26 -22 26 -22 6z m46 -116 c-3 -20 -16 -31 -16 -13 0 13 8 28 16
28 1 0 1 -7 0 -15z m-152 -185 c4 -34 4 -81 0 -106 l-7 -46 -18 29 c-30 45
-23 183 10 183 5 0 11 -27 15 -60z m-59 -192 c4 -49 2 -93 -3 -108 l-10 -25
-8 33 c-5 24 -11 31 -22 27 -11 -4 -13 0 -7 17 4 13 8 39 9 58 3 43 15 80 26
80 4 0 11 -37 15 -82z m519 -27 c-8 -9 -34 10 -34 25 0 16 2 16 19 -2 10 -10
17 -21 15 -23z m41 -128 c-4 -96 -7 -99 -15 -13 -6 77 -5 94 9 86 4 -3 7 -36
6 -73z m-385 47 c0 -5 -2 -10 -4 -10 -3 0 -8 5 -11 10 -3 6 -1 10 4 10 6 0 11
-4 11 -10z m531 -33 c-10 -9 -11 -8 -5 6 3 10 9 15 12 12 3 -3 0 -11 -7 -18z
m-41 -57 c0 -5 -5 -10 -11 -10 -5 0 -7 5 -4 10 3 6 8 10 11 10 2 0 4 -4 4 -10z
m2190 -245 c0 -8 8 -15 18 -16 9 -1 -3 -5 -28 -10 -56 -11 -74 -6 -37 11 15 7
27 17 27 22 0 4 5 8 10 8 6 0 10 -7 10 -15z m230 5 c0 -5 -4 -10 -9 -10 -6 0
-13 5 -16 10 -3 6 1 10 9 10 9 0 16 -4 16 -10z m60 -6 c0 -9 -5 -14 -12 -12
-18 6 -21 28 -4 28 9 0 16 -7 16 -16z m60 12 c0 -11 -19 -15 -25 -6 -3 5 1 10
9 10 9 0 16 -2 16 -4z m50 -6 c0 -5 -4 -10 -9 -10 -6 0 -13 5 -16 10 -3 6 1
10 9 10 9 0 16 -4 16 -10z m60 0 c0 -5 -7 -10 -15 -10 -8 0 -15 5 -15 10 0 6
7 10 15 10 8 0 15 -4 15 -10z m55 0 c-3 -5 -12 -10 -20 -10 -8 0 -17 5 -20 10
-4 6 5 10 20 10 15 0 24 -4 20 -10z m48 3 c-7 -2 -19 -2 -25 0 -7 3 -2 5 12 5
14 0 19 -2 13 -5z m-3468 -40 c3 -16 13 -35 20 -43 7 -8 21 -41 30 -72 10 -35
22 -58 30 -58 8 0 17 -15 20 -37 4 -21 9 -45 11 -55 3 -9 1 -19 -4 -22 -6 -3
-18 21 -28 54 -11 33 -23 60 -29 60 -12 1 -55 90 -55 113 0 9 -4 19 -10 22
-12 8 -13 65 -1 65 5 0 12 -12 16 -27z m2794 -24 c-19 -12 -76 -11 -84 1 -6 9
16 17 65 22 28 3 39 -10 19 -23z m-182 -55 c-3 -3 -12 -4 -19 -1 -8 3 -5 6 6
6 11 1 17 -2 13 -5z m-2462 -214 c3 -5 9 -29 13 -52 6 -34 12 -43 27 -43 14 0
23 -10 30 -32 5 -18 15 -33 21 -33 22 0 47 -31 35 -43 -15 -15 -130 105 -138
144 -3 16 -9 32 -14 35 -10 6 0 34 11 34 5 0 12 -4 15 -10z m2055 1 c0 -13
-54 -51 -72 -51 -7 0 3 14 22 30 36 31 50 37 50 21z m-160 -105 c0 -3 -13 -14
-30 -26 -31 -22 -41 -13 -14 14 14 15 44 22 44 12z m-1710 -136 c0 -11 -2 -20
-3 -20 -2 0 -12 9 -22 20 -18 19 -17 20 3 20 15 0 22 -6 22 -20z m4029 -179
c11 -47 23 -96 27 -108 3 -13 2 -23 -2 -23 -14 0 -34 51 -34 84 0 17 -12 54
-27 82 -17 34 -24 57 -19 70 7 18 8 18 21 0 8 -10 23 -57 34 -105z m-3859 79
c0 -5 -5 -10 -11 -10 -5 0 -7 5 -4 10 3 6 8 10 11 10 2 0 4 -4 4 -10z m145
-60 c3 -5 1 -10 -4 -10 -6 0 -11 5 -11 10 0 6 2 10 4 10 3 0 8 -4 11 -10z
m3784 -269 c1 -15 -3 -21 -8 -15 -12 13 -21 70 -13 79 8 8 20 -28 21 -64z m51
-116 c0 -8 -4 -15 -10 -15 -5 0 -10 7 -10 15 0 8 5 15 10 15 6 0 10 -7 10 -15z"/>
<path d="M1232 3071 c-27 -50 -27 -51 -3 -51 24 0 47 51 33 75 -7 14 -12 10
-30 -24z"/>
<path d="M1570 2681 c0 -5 7 -12 16 -15 24 -9 28 -7 14 9 -14 17 -30 20 -30 6z"/>
<path d="M5310 1831 c0 -11 5 -23 10 -26 6 -3 10 3 10 14 0 11 -4 23 -10 26
-5 3 -10 -3 -10 -14z"/>
<path d="M6482 905 c-17 -6 -38 -17 -45 -24 -10 -11 -5 -13 27 -8 39 6 76 30
59 39 -4 2 -23 -1 -41 -7z"/>
</g>
</svg>
